<svg viewBox="0 0 48 48" xmlns="http://www.w3.org/2000/svg"><g transform="matrix(2,0,0,2,0,0)"><path d="M20.25,5.25a4.927,4.927,0,0,0-3.75-1.5,4.927,4.927,0,0,0-3.75,1.5" fill="none" stroke="#1BACBF" stroke-linecap="round" stroke-linejoin="round" stroke-width="1.5"></path><path d="M20.25,9A4.927,4.927,0,0,0,16.5,7.5,4.927,4.927,0,0,0,12.75,9" fill="none" stroke="#1BACBF" stroke-linecap="round" stroke-linejoin="round" stroke-width="1.5"></path><path d="M16.5 3.75L16.5 11.25" fill="none" stroke="#1BACBF" stroke-linecap="round" stroke-linejoin="round" stroke-width="1.5"></path><path d="M2.250 3.750 A3.000 3.000 0 1 0 8.250 3.750 A3.000 3.000 0 1 0 2.250 3.750 Z" fill="none" stroke="#1BACBF" stroke-linecap="round" stroke-linejoin="round" stroke-width="1.5"></path><path d="M5.25 8.25L5.25 14.25" fill="none" stroke="#1BACBF" stroke-linecap="round" stroke-linejoin="round" stroke-width="1.5"></path><path d="M7.5,23.25l.75-7.5h1.5v-3a4.5,4.5,0,0,0-9,0v3h1.5L3,23.25Z" fill="none" stroke="#1BACBF" stroke-linecap="round" stroke-linejoin="round" stroke-width="1.5"></path><path d="M11.25.75h10.5a1.5,1.5,0,0,1,1.5,1.5v10.5a1.5,1.5,0,0,1-1.5,1.5H13.5" fill="none" stroke="#1BACBF" stroke-linecap="round" stroke-linejoin="round" stroke-width="1.5"></path></g></svg>